# xmcd
#
# Track frame offsets:
#	225
#	11327
#	23794
#	38212
#	49035
#	60368
#	75797
#	90896
#	110570
#	122552
#	138651
#	157388
#	166668
#	180768
#
# Disc length: 2617 seconds
#
# Revision: 3
# Processed by: cddbd v1.5.2PL0 Copyright (c) Steve Scherf et al.
# Submitted via: audiograbber 1.83.01
#
DISCID=990a360e
DTITLE=Kenny Rogers - Greatest Hits CD2
DYEAR=2000
DGENRE=Country
TTITLE0=Elvira
TTITLE1=Reuben James
TTITLE2=Sunshine
TTITLE3=Homemade Lie
TTITLE4=Always Leaving, Always Gone
TTITLE5=For the Good Times
TTITLE6=All God's Lonely Children
TTITLE7=Lay it Down
TTITLE8=What am I Gonna Do
TTITLE9=Tulsa Turnaround
TTITLE10=The King of oak Street
TTITLE11=Camptown Ladies
TTITLE12=Molly
TTITLE13=Good Lady of Toronto
EXTD=ID3G:   2
EXTT0=
EXTT1=
EXTT2=
EXTT3=
EXTT4=
EXTT5=
EXTT6=
EXTT7=
EXTT8=
EXTT9=
EXTT10=
EXTT11=
EXTT12=
EXTT13=
PLAYORDER=
